<?xml version="1.0" standalone="no"?>
<!DOCTYPE svg PUBLIC "-//W3C//DTD SVG 20010904//EN"
 "http://www.w3.org/TR/2001/REC-SVG-20010904/DTD/svg10.dtd">
<svg version="1.0" xmlns="http://www.w3.org/2000/svg"
 width="500.000000pt" height="500.000000pt" viewBox="0 0 500.000000 500.000000"
 preserveAspectRatio="xMidYMid meet">
<metadata>
Created by potrace 1.14, written by Peter Selinger 2001-2017
</metadata>
<g transform="translate(0.000000,500.000000) scale(0.100000,-0.100000)"
fill="#000000" stroke="none">
<path d="M2330 4297 c-3 -3 -34 -7 -70 -11 -151 -14 -437 -103 -588 -183 -490
-259 -833 -713 -943 -1248 -30 -145 -37 -441 -15 -595 20 -139 53 -265 102
-397 192 -515 627 -921 1159 -1083 289 -88 625 -99 924 -30 570 132 1035 525
1262 1068 33 81 74 200 84 251 41 199 46 234 49 382 18 792 -469 1496 -1211
1753 -191 66 -323 88 -548 93 -111 2 -203 2 -205 0z m331 -31 c104 -10 136
-15 208 -31 346 -79 632 -236 878 -481 262 -262 432 -590 497 -959 21 -117 28
-392 13 -510 -74 -586 -438 -1100 -967 -1365 -152 -77 -369 -148 -505 -166
-27 -3 -54 -9 -60 -12 -5 -3 -93 -7 -195 -8 -167 -2 -214 2 -375 29 -115 19
-322 90 -448 154 -761 381 -1146 1249 -917 2068 166 593 651 1069 1254 1229
53 15 113 29 134 32 20 3 48 7 62 10 14 2 63 7 110 10 47 4 86 7 87 8 4 3 165
-3 224 -8z"/>
<path d="M2256 4199 c-176 -26 -407 -103 -563 -186 -368 -197 -666 -538 -802
-917 -86 -241 -96 -304 -96 -596 1 -215 3 -257 23 -343 153 -688 661 -1193
1347 -1340 84 -18 134 -21 315 -22 118 0 238 3 265 8 429 64 839 301 1102 637
161 207 267 430 329 696 26 110 28 136 28 329 1 268 -5 321 -61 517 -33 120
-63 192 -128 314 -68 130 -116 200 -210 312 -272 324 -643 528 -1072 591 -79
12 -399 12 -477 0z m576 -43 c439 -91 813 -342 1070 -716 113 -165 225 -437
254 -620 3 -19 7 -37 9 -40 16 -27 25 -353 13 -470 -40 -379 -225 -753 -504
-1020 -80 -76 -204 -175 -280 -223 -121 -75 -393 -191 -500 -211 -206 -40
-434 -52 -594 -33 -616 74 -1146 485 -1371 1062 -78 199 -109 363 -114 595
-10 470 168 899 511 1231 143 138 247 211 431 303 167 84 353 141 517 160 27
3 51 8 53 10 3 2 89 3 191 1 157 -2 208 -7 314 -29z"/>
<path d="M2320 3980 c-25 -4 -64 -10 -88 -14 -158 -22 -380 -110 -549 -219
-338 -217 -580 -583 -653 -989 -22 -123 -25 -349 -5 -478 64 -420 285 -766
655 -1025 136 -95 381 -193 553 -220 17 -3 57 -10 87 -15 30 -5 127 -7 215 -5
240 6 410 48 630 156 383 188 673 549 778 969 34 136 38 160 42 310 14 499
-205 950 -603 1248 -171 128 -402 229 -609 268 -95 18 -376 26 -453 14z m470
-44 c297 -61 538 -192 751 -408 418 -424 539 -1060 305 -1606 -182 -425 -580
-756 -1023 -852 -684 -148 -1352 180 -1653 813 -46 96 -102 271 -114 355 -3
20 -10 66 -15 102 -6 36 -8 133 -6 215 5 219 48 391 146 588 59 117 86 162
152 247 248 321 620 530 1006 566 36 4 67 8 69 9 1 1 60 1 130 -1 88 -2 165
-10 252 -28z"/>
<path d="M2295 3731 c-31 -13 -75 -62 -77 -85 0 -11 -2 -28 -3 -36 -4 -41 43
-108 86 -122 11 -4 13 -29 10 -143 -1 -38 -3 -41 -43 -53 -123 -39 -213 -96
-331 -210 -54 -52 -49 -63 15 -34 45 19 161 56 213 66 66 14 81 17 115 22 77
13 300 19 365 9 17 -2 52 -7 78 -10 77 -8 312 -73 342 -95 6 -4 18 -10 28 -13
14 -5 11 3 -12 32 -41 52 -113 111 -192 159 -75 46 -83 71 -37 112 40 36 46
79 16 115 -18 20 -33 28 -56 27 -40 -1 -49 -6 -67 -43 -14 -27 -14 -33 0 -63
9 -19 25 -36 36 -39 13 -3 19 -14 19 -31 0 -31 2 -30 -60 -10 l-49 16 0 72 0
72 35 19 c135 73 44 274 -101 224 -43 -15 -85 -67 -85 -104 0 -18 -7 -24 -33
-29 -70 -13 -88 -77 -35 -129 31 -31 42 -64 28 -86 -3 -6 -35 -13 -71 -16
l-66 -6 0 83 c0 83 0 83 30 99 65 33 88 102 56 166 -10 21 -29 44 -41 52 -28
17 -86 23 -113 12z m343 -350 c2 -53 0 -71 -9 -66 -6 4 -30 8 -53 9 -41 2 -41
2 -44 43 -3 35 0 42 18 48 12 4 26 17 32 30 8 18 15 22 32 16 18 -7 21 -17 24
-80z"/>
<path d="M2144 3438 c-38 -47 -29 -99 23 -126 40 -22 95 1 111 46 13 39 -7 85
-44 99 -43 17 -63 13 -90 -19z"/>
<path d="M2059 3324 c-15 -19 -2 -47 26 -52 25 -5 38 13 31 42 -7 30 -36 35
-57 10z"/>
<path d="M2256 2537 c-3 -28 -9 -74 -12 -102 -3 -27 -7 -63 -9 -80 -3 -16 -7
-60 -11 -96 -7 -73 -10 -81 -39 -97 -17 -9 -10 -11 40 -11 33 1 52 3 42 6 -20
5 -19 39 2 253 l6 64 70 -149 c71 -155 95 -198 95 -177 0 6 33 85 73 174 l72
163 7 -65 c19 -184 21 -252 7 -261 -9 -5 10 -9 51 -8 47 0 59 3 44 9 -29 11
-31 16 -39 80 -41 347 -44 366 -53 340 -3 -8 -24 -55 -47 -105 -23 -49 -57
-125 -76 -167 -19 -43 -37 -78 -40 -78 -4 0 -17 24 -29 52 -13 29 -47 104 -76
166 -30 63 -54 117 -54 122 0 5 -4 11 -9 14 -5 3 -12 -18 -15 -47z"/>
<path d="M1188 2570 c24 -10 23 0 24 -195 0 -208 1 -205 -24 -215 -16 -7 10
-9 87 -7 118 2 151 14 174 65 25 52 -3 130 -54 154 l-24 11 24 29 c36 43 34
96 -5 133 -29 27 -36 29 -128 32 -69 2 -91 0 -74 -7z m164 -38 c22 -21 26 -78
9 -110 -7 -13 -25 -25 -42 -29 -16 -3 -32 -10 -36 -16 -3 -5 -2 -7 4 -4 18 11
82 -13 103 -40 28 -36 27 -94 -3 -129 -19 -22 -34 -28 -75 -30 -29 -2 -53 0
-53 4 -4 23 -5 368 -1 376 7 13 74 -2 94 -22z"/>
<path d="M1548 2570 c24 -10 24 -10 24 -135 -1 -270 0 -265 -24 -275 -17 -6
-5 -9 47 -9 48 0 64 3 49 9 -12 4 -23 14 -26 22 -2 7 -4 94 -4 193 l1 179 25
13 c22 11 18 13 -45 12 -52 0 -64 -3 -47 -9z"/>
<path d="M1873 2520 c-89 -21 -143 -92 -143 -187 0 -69 28 -125 81 -160 75
-50 226 -32 279 32 8 10 15 34 15 54 1 43 12 64 28 55 7 -4 8 -3 4 2 -8 9 -97
15 -97 7 0 -3 6 -11 14 -19 8 -7 13 -22 11 -31 -2 -10 -4 -30 -4 -44 -1 -36
-72 -71 -137 -68 -92 5 -149 72 -148 174 1 70 20 114 65 146 36 25 105 33 154
16 35 -12 75 -45 75 -63 0 -7 4 -15 9 -18 5 -4 8 2 6 11 -14 69 -14 70 -55 82
-53 16 -118 21 -157 11z"/>
<path d="M3529 2520 c-1 -3 -3 -15 -4 -28 -2 -21 -1 -21 15 -7 11 10 36 15 73
15 l57 0 0 -165 c0 -162 0 -166 -22 -175 -18 -7 -7 -9 42 -9 59 -1 63 0 43 14
-19 14 -20 23 -19 172 l1 158 58 3 c35 2 64 -2 73 -9 11 -9 14 -7 14 12 l0 24
-165 0 c-91 0 -166 -2 -166 -5z"/>
<path d="M2895 2458 c-95 -212 -136 -289 -157 -298 -17 -6 -7 -9 42 -8 36 0
57 2 48 5 -10 2 -18 11 -18 19 0 19 28 87 39 94 5 3 40 5 78 4 67 0 68 0 85
-35 20 -41 23 -75 6 -82 -7 -3 16 -5 52 -6 45 0 59 3 44 9 -22 9 -22 8 -114
210 -33 74 -65 139 -69 143 -4 4 -21 -20 -36 -55z m64 -86 c16 -39 27 -73 23
-75 -4 -1 -32 -3 -62 -2 -49 0 -55 2 -53 20 2 25 52 139 58 133 3 -2 18 -37
34 -76z"/>
<path d="M3186 2506 c19 -14 21 -24 20 -171 -1 -143 -3 -158 -20 -171 -18 -13
-13 -14 45 -13 48 0 59 2 42 9 -16 7 -23 18 -24 37 0 48 -1 277 0 291 1 15 71
16 105 1 28 -13 50 -66 40 -95 -14 -40 -36 -54 -83 -55 -37 0 -42 -2 -26 -10
11 -6 42 -39 68 -75 54 -73 97 -104 142 -104 l30 0 -30 16 c-16 8 -48 38 -70
66 -22 28 -47 58 -55 66 -13 14 -13 16 0 20 8 3 27 18 42 33 38 38 39 100 3
133 -31 29 -64 36 -168 36 -74 0 -79 -1 -61 -14z"/>
<path d="M1654 1972 c10 -9 1016 -10 1016 -1 0 4 -230 7 -511 8 -282 0 -509
-3 -505 -7z"/>
<path d="M2680 1971 c0 -4 151 -7 335 -7 184 0 335 4 335 8 0 4 -151 7 -335 7
-184 -1 -335 -5 -335 -8z"/>
<path d="M1873 1773 c24 -4 27 -8 28 -46 1 -23 0 -54 -1 -69 -1 -16 3 -28 9
-28 7 0 11 27 11 71 0 71 0 71 25 67 14 -3 25 -2 25 3 0 4 -28 7 -62 6 -35 0
-51 -2 -35 -4z"/>
<path d="M2336 1759 c-18 -14 -26 -30 -26 -53 0 -36 31 -76 58 -75 14 0 14 2
2 6 -40 14 -55 87 -24 117 21 22 70 20 83 -1 9 -16 10 -16 11 -2 0 34 -64 39
-104 8z"/>
<path d="M1995 1695 c0 -44 4 -65 12 -65 7 0 11 12 10 28 -2 24 1 27 36 30 35
3 37 2 37 -27 0 -17 5 -31 10 -31 6 0 10 28 10 65 0 47 -4 65 -13 65 -9 0 -12
-10 -9 -30 4 -29 3 -30 -35 -30 -35 0 -39 2 -38 27 0 14 -4 28 -10 30 -6 2
-10 -23 -10 -62z"/>
<path d="M2155 1695 l0 -65 37 0 c20 0 39 4 42 8 2 4 -10 6 -28 4 -30 -4 -33
-1 -33 22 0 21 4 26 23 26 13 0 24 4 24 9 0 4 -11 6 -25 3 -22 -4 -25 -1 -25
23 0 25 3 27 30 23 17 -3 30 -1 30 4 0 4 -17 8 -37 8 l-38 0 0 -65z"/>
<path d="M2490 1695 c0 -45 4 -65 13 -65 8 0 11 17 9 60 -3 48 -1 60 11 60 8
0 21 -7 28 -16 12 -14 11 -19 -6 -32 -20 -15 -20 -16 5 -44 31 -36 48 -37 20
-1 -14 18 -17 30 -10 37 19 19 11 53 -12 60 -55 14 -58 11 -58 -59z"/>
<path d="M2630 1740 c-38 -38 -15 -110 36 -110 16 0 16 2 -5 13 -31 16 -42 48
-27 78 13 27 45 35 75 19 30 -15 29 -73 -1 -95 -21 -15 -21 -16 -3 -13 26 4
50 48 42 79 -12 46 -82 64 -117 29z"/>
<path d="M2790 1740 c-11 -11 -20 -30 -20 -43 0 -29 26 -67 47 -67 11 0 9 5
-7 18 -42 34 -25 97 28 105 l27 4 -27 2 c-16 0 -37 -8 -48 -19z"/>
<path d="M2870 1751 c0 -5 5 -13 10 -16 6 -3 10 -2 10 4 0 5 -4 13 -10 16 -5
3 -10 2 -10 -4z"/>
<path d="M2935 1695 c-1 -59 1 -65 20 -64 11 0 14 3 8 6 -7 2 -13 15 -13 28 0
18 6 25 28 28 l27 4 -27 2 c-23 1 -28 6 -28 27 0 23 3 26 30 22 17 -3 30 -1
30 4 0 4 -17 8 -38 8 l-37 0 0 -65z"/>
<path d="M3045 1695 c0 -37 4 -65 10 -65 6 0 10 29 10 65 0 38 -4 65 -10 65
-6 0 -10 -27 -10 -65z"/>
<path d="M3093 1749 c21 -12 22 -38 2 -53 -13 -10 -12 -15 10 -38 14 -16 30
-28 36 -28 5 0 -1 12 -15 27 -21 22 -22 28 -10 40 20 20 18 40 -5 53 -25 13
-42 13 -18 -1z"/>
<path d="M2430 1669 c0 -17 4 -28 10 -24 6 3 10 17 10 31 0 13 -4 24 -10 24
-5 0 -10 -14 -10 -31z"/>
<path d="M2887 1655 c-4 -8 -13 -15 -21 -15 -8 0 -17 -4 -20 -9 -4 -5 3 -7 14
-4 21 6 46 31 38 39 -3 3 -8 -2 -11 -11z"/>
<path d="M2996 1645 c-16 -12 -17 -15 -4 -15 9 0 18 7 22 15 7 18 6 18 -18 0z"/>
<path d="M2398 1633 c7 -3 16 -2 19 1 4 3 -2 6 -13 5 -11 0 -14 -3 -6 -6z"/>
</g>
</svg>
